<?xml version="1.0" encoding="utf-8"?>
<!-- Generator: Adobe Illustrator 19.2.1, SVG Export Plug-In . SVG Version: 6.00 Build 0)  -->
<svg version="1.1" id="layer" xmlns="http://www.w3.org/2000/svg" xmlns:xlink="http://www.w3.org/1999/xlink" x="0px" y="0px"
	 viewBox="0 0 652 652" style="enable-background:new 0 0 652 652;" xml:space="preserve">
<style type="text/css">
	.st0{fill:#263238;}
	.st1{fill:#FABF2C;}
</style>
<g id="Page-1">
	<g id="CT-logo-BlackYellow-tag">
		<g id="Atoms_x2F_Icons_x2F_logos_x2F_CT-GY-icon">
			<g id="Group">
				<path id="Shape" class="st0" d="M107.1,354l-25,10.9v-1.1c-4.8,1.2-10.2,1.9-15.2,2.2c-23.6-0.2-42.2-12.6-42.5-27.2v-5.4
					c7.7,11.2,23.5,18.8,42.5,18.5c6.4,0.3,13-0.7,18.5-2.2l2.2-5.4c-6.5,2-13.7,3.3-20.7,3.3c-23.6,0-42.2-12.3-42.5-27.2v-4.4
					c7.7,10.4,23.5,17.9,42.5,17.4c8.6,0.5,16.9-1.3,24-4.4l1.1-5.4c-6.9,3.6-15.8,5.7-25,5.4c-23.6,0.3-42.2-12-42.5-27.2v-4.4
					c7.7,10.6,23.5,18.2,42.5,18.5c10.8-0.3,21-3.2,29.4-7.6l1.1-6.5c-7.6,5.6-18.7,9.3-30.5,9.8c-23.6-0.5-42.2-12.9-42.5-28.3
					c0.2-14.7,18.9-27,42.5-27.2c14,0.2,27.1,5.1,34.8,13.1l0.8,1.3l5.5,0l-0.8-1.3c-7.7-10.5-23.2-17.4-40.3-17.4
					C40.8,251.7,20,266,20,283.2v1.1v55.5c0.9,16.8,21.2,30.5,46.8,30.5C83.7,370.4,99,363.7,107.1,354z"/>
				<path id="Shape_1_" class="st1" d="M96.9,392.3l8.8-37.4l-25.3,11l15.4-64.8H66.2l7.7-31.9h94.5l-7.7,31.9h-30.8l-6.6,17.6
					l34.1-14.3L96.9,392.3z M112.3,347.3l-4.4,22l36.3-54.9l-29.7,13.2l13.2-30.8h29.7l5.5-23.1H77.1l-5.5,23.1h29.7L87,358.3
					L112.3,347.3z"/>
			</g>
		</g>
		<path id="Shape_2_" class="st0" d="M231.1,290.6l0,0.1c0.1,3.5-1,6.2-3.2,8.2s-5.2,3-9.1,3c-3.9,0-7.1-1.3-9.5-3.8
			s-3.6-5.8-3.6-9.8v-6.5c0-4,1.2-7.3,3.5-9.8c2.4-2.5,5.5-3.8,9.3-3.8c4,0,7.1,1,9.4,2.9c2.3,2,3.4,4.7,3.3,8.2l0,0.1h-6.4
			c0-2.1-0.5-3.7-1.5-4.7c-1-1-2.6-1.5-4.7-1.5c-2,0-3.5,0.8-4.6,2.4s-1.7,3.6-1.7,6.1v6.6c0,2.5,0.6,4.6,1.7,6.2
			c1.2,1.6,2.8,2.4,4.9,2.4c2,0,3.4-0.5,4.4-1.5s1.5-2.6,1.5-4.7H231.1z M267.3,288c0,4-1.3,7.4-3.8,10s-5.8,3.9-9.9,3.9
			c-4.1,0-7.3-1.3-9.9-3.9c-2.5-2.6-3.8-6-3.8-10v-5.9c0-4,1.3-7.3,3.8-10c2.5-2.6,5.8-4,9.8-4c4.1,0,7.4,1.3,9.9,4
			c2.6,2.6,3.8,6,3.8,10V288z M260.7,282c0-2.6-0.6-4.6-1.9-6.3c-1.3-1.6-3-2.5-5.3-2.5c-2.2,0-4,0.8-5.2,2.5
			c-1.2,1.6-1.9,3.7-1.9,6.3v5.9c0,2.6,0.6,4.7,1.9,6.4c1.2,1.6,3,2.5,5.2,2.5c2.3,0,4-0.8,5.3-2.5c1.3-1.6,1.9-3.8,1.9-6.4V282z
			 M284.3,301.4h-6.6v-32.8h6.6V301.4z M322.2,301.4h-6.6l-13.2-22.1l-0.1,0v22.1h-6.6v-32.8h6.6l13.2,22.1l0.1,0v-22.1h6.6V301.4z
			 M355.3,273.7h-9.4v27.7h-6.6v-27.7h-9.2v-5.1h25.2V273.7z M382.5,287h-12.2v9.4h14.5v5h-21v-32.8h21v5.1h-14.4v8.2h12.2V287z
			 M400.8,296.4h14.7v5h-21.3v-32.8h6.6V296.4z M443.5,287h-12.2v9.4h14.5v5h-21v-32.8h21v5.1h-14.4v8.2h12.2V287z M480.4,297
			c-1,1.3-2.5,2.5-4.6,3.5c-2,1-4.6,1.5-7.8,1.5c-4,0-7.2-1.2-9.7-3.7s-3.8-5.7-3.8-9.7v-6.9c0-4,1.2-7.2,3.7-9.7
			c2.4-2.5,5.6-3.8,9.4-3.8c4,0,7.1,1,9.2,2.9c2.1,1.9,3.2,4.4,3.1,7.6l0,0.1h-6.2c0-1.7-0.5-3.1-1.5-4.1c-1-1-2.5-1.5-4.4-1.5
			c-2,0-3.6,0.8-4.9,2.3c-1.2,1.6-1.8,3.6-1.8,6v6.9c0,2.5,0.6,4.5,1.9,6.1c1.3,1.6,3,2.3,5.1,2.3c1.6,0,2.8-0.2,3.7-0.5
			c0.9-0.3,1.6-0.7,2.1-1.2v-6.4h-6.3v-4.6h12.9V297z M497.4,288.3v13.1h-6.6v-32.8h11.4c3.7,0,6.7,0.9,8.8,2.6
			c2.1,1.7,3.2,4.1,3.2,7.1c0,1.7-0.4,3.1-1.3,4.4c-0.9,1.2-2.2,2.2-3.9,3c1.9,0.6,3.3,1.5,4.2,2.9c0.8,1.3,1.3,3,1.3,5v2.4
			c0,0.9,0.1,1.9,0.4,2.9c0.2,1,0.7,1.7,1.3,2.2v0.5h-6.8c-0.6-0.5-1-1.3-1.2-2.4c-0.2-1.1-0.3-2.2-0.3-3.2v-2.3
			c0-1.6-0.4-2.9-1.3-3.8c-0.9-0.9-2.2-1.4-3.8-1.4H497.4z M497.4,283.3h4.7c1.8,0,3.2-0.4,4.1-1.2s1.4-1.9,1.4-3.5
			c0-1.5-0.5-2.7-1.4-3.6c-0.9-0.9-2.2-1.3-4-1.3h-4.8V283.3z M542.1,294.4h-10.6l-2.2,7.1h-6.9l11.1-32.8h6.7l11,32.8h-6.9
			L542.1,294.4z M533.1,289.2h7.4l-3.6-11.6h-0.1L533.1,289.2z M565.8,289.5v11.9h-6.6v-32.8h12.6c3.8,0,6.7,1,8.9,2.9
			s3.2,4.5,3.2,7.6c0,3.1-1.1,5.7-3.2,7.6c-2.2,1.9-5.1,2.9-8.9,2.9H565.8z M565.8,284.5h6c1.8,0,3.2-0.5,4.2-1.5
			c0.9-1,1.4-2.3,1.4-3.8c0-1.6-0.5-2.9-1.4-3.9c-0.9-1-2.3-1.5-4.2-1.5h-6V284.5z M620,301.4h-6.6v-13.6h-13.4v13.6h-6.6v-32.8h6.6
			v14.1h13.4v-14.1h6.6V301.4z"/>
		<g id="Tag_x2F_The-future-of-money-_x2014_-dark-grey" transform="translate(169.000000, 69.000000)">
			<path id="The-future-of-money" class="st0" d="M48.7,286h-4.1v-21.6h-7.4v-3.5h18.9v3.5h-7.4V286z M76.2,286h-4.1v-11.7
				c0-1.5-0.3-2.6-0.9-3.3c-0.6-0.7-1.5-1.1-2.8-1.1c-1.7,0-2.9,0.5-3.7,1.5c-0.8,1-1.2,2.7-1.2,5.1v9.4h-4v-26.7h4v6.8
				c0,1.1-0.1,2.2-0.2,3.5h0.3c0.5-0.9,1.3-1.6,2.3-2.1s2.1-0.8,3.4-0.8c4.6,0,6.9,2.3,6.9,7V286z M90.1,286.3c-3,0-5.3-0.9-6.9-2.6
				c-1.7-1.7-2.5-4.1-2.5-7.1c0-3.1,0.8-5.5,2.3-7.3c1.5-1.8,3.7-2.7,6.4-2.7c2.5,0,4.5,0.8,5.9,2.3c1.5,1.5,2.2,3.6,2.2,6.3v2.2
				H84.8c0.1,1.8,0.6,3.3,1.5,4.2c0.9,1,2.3,1.5,4,1.5c1.1,0,2.2-0.1,3.1-0.3c1-0.2,2-0.6,3.1-1.1v3.3c-1,0.5-2,0.8-3,1
				C92.6,286.2,91.4,286.3,90.1,286.3z M89.4,269.7c-1.3,0-2.3,0.4-3.1,1.2c-0.8,0.8-1.2,2-1.4,3.6h8.6c0-1.6-0.4-2.8-1.1-3.6
				C91.7,270.1,90.7,269.7,89.4,269.7z M120.7,270h-4.6V286h-4.1V270h-3.1v-1.9l3.1-1.2v-1.2c0-2.2,0.5-3.9,1.6-5s2.7-1.6,4.8-1.6
				c1.4,0,2.8,0.2,4.2,0.7l-1.1,3.1c-1-0.3-1.9-0.5-2.9-0.5c-0.9,0-1.6,0.3-2,0.8c-0.4,0.6-0.6,1.4-0.6,2.5v1.2h4.6V270z M137.4,286
				l-0.6-2.5h-0.2c-0.6,0.9-1.4,1.6-2.4,2.1s-2.2,0.8-3.5,0.8c-2.3,0-4-0.6-5.2-1.7s-1.7-2.9-1.7-5.2V267h4.1v11.7
				c0,1.5,0.3,2.5,0.9,3.3c0.6,0.7,1.5,1.1,2.8,1.1c1.7,0,2.9-0.5,3.7-1.5c0.8-1,1.2-2.7,1.2-5.1V267h4.1v19H137.4z M153.4,283
				c1,0,2-0.2,3-0.5v3c-0.4,0.2-1,0.4-1.7,0.5c-0.7,0.1-1.4,0.2-2.2,0.2c-3.8,0-5.7-2-5.7-6V270h-2.6v-1.8l2.8-1.5l1.4-4h2.5v4.2
				h5.4v3.1h-5.4v10.2c0,1,0.2,1.7,0.7,2.2C151.9,282.8,152.6,283,153.4,283z M173.5,286l-0.6-2.5h-0.2c-0.6,0.9-1.4,1.6-2.4,2.1
				c-1,0.5-2.2,0.8-3.5,0.8c-2.3,0-4-0.6-5.2-1.7c-1.1-1.1-1.7-2.9-1.7-5.2V267h4.1v11.7c0,1.5,0.3,2.5,0.9,3.3
				c0.6,0.7,1.5,1.1,2.8,1.1c1.7,0,2.9-0.5,3.7-1.5s1.2-2.7,1.2-5.1V267h4.1v19H173.5z M192.1,266.6c0.8,0,1.5,0.1,2,0.2l-0.4,3.8
				c-0.6-0.1-1.2-0.2-1.8-0.2c-1.6,0-2.9,0.5-3.9,1.6c-1,1.1-1.5,2.4-1.5,4.1v9.9h-4v-19h3.2l0.5,3.3h0.2c0.6-1.1,1.5-2,2.5-2.7
				C189.8,267,190.9,266.6,192.1,266.6z M205.2,286.3c-3,0-5.3-0.9-6.9-2.6c-1.7-1.7-2.5-4.1-2.5-7.1c0-3.1,0.8-5.5,2.3-7.3
				c1.5-1.8,3.7-2.7,6.4-2.7c2.5,0,4.5,0.8,5.9,2.3c1.5,1.5,2.2,3.6,2.2,6.3v2.2h-12.7c0.1,1.8,0.6,3.3,1.5,4.2c0.9,1,2.3,1.5,4,1.5
				c1.1,0,2.2-0.1,3.1-0.3c1-0.2,2-0.6,3.1-1.1v3.3c-1,0.5-2,0.8-3,1C207.6,286.2,206.5,286.3,205.2,286.3z M204.5,269.7
				c-1.3,0-2.3,0.4-3.1,1.2c-0.8,0.8-1.2,2-1.4,3.6h8.6c0-1.6-0.4-2.8-1.1-3.6C206.7,270.1,205.7,269.7,204.5,269.7z M243.1,276.4
				c0,3.1-0.8,5.5-2.4,7.3c-1.6,1.7-3.8,2.6-6.6,2.6c-1.8,0-3.3-0.4-4.7-1.2s-2.4-2-3.1-3.5c-0.7-1.5-1.1-3.2-1.1-5.2
				c0-3.1,0.8-5.5,2.4-7.2s3.8-2.6,6.7-2.6c2.7,0,4.9,0.9,6.5,2.7S243.1,273.4,243.1,276.4z M229.3,276.4c0,4.4,1.6,6.6,4.9,6.6
				c3.2,0,4.8-2.2,4.8-6.6c0-4.3-1.6-6.5-4.8-6.5c-1.7,0-2.9,0.6-3.7,1.7C229.7,272.7,229.3,274.3,229.3,276.4z M257.3,270h-4.6V286
				h-4.1V270h-3.1v-1.9l3.1-1.2v-1.2c0-2.2,0.5-3.9,1.6-5s2.7-1.6,4.8-1.6c1.4,0,2.8,0.2,4.2,0.7l-1.1,3.1c-1-0.3-1.9-0.5-2.9-0.5
				c-0.9,0-1.6,0.3-2,0.8s-0.6,1.4-0.6,2.5v1.2h4.6V270z M285.7,286h-4.1v-11.7c0-1.5-0.3-2.5-0.8-3.3c-0.5-0.7-1.4-1.1-2.6-1.1
				c-1.6,0-2.7,0.5-3.4,1.5c-0.7,1-1.1,2.7-1.1,5.1v9.5h-4v-19h3.2l0.6,2.5h0.2c0.5-0.9,1.3-1.6,2.3-2.1s2.1-0.7,3.3-0.7
				c2.9,0,4.9,1,5.8,3h0.3c0.6-0.9,1.4-1.7,2.4-2.2s2.2-0.8,3.5-0.8c2.3,0,3.9,0.6,5,1.7c1,1.1,1.6,2.9,1.6,5.2V286h-4v-11.7
				c0-1.5-0.3-2.5-0.8-3.3c-0.6-0.7-1.4-1.1-2.6-1.1c-1.6,0-2.7,0.5-3.4,1.5c-0.7,1-1.1,2.5-1.1,4.5V286z M320.1,276.4
				c0,3.1-0.8,5.5-2.4,7.3c-1.6,1.7-3.8,2.6-6.6,2.6c-1.8,0-3.3-0.4-4.7-1.2c-1.4-0.8-2.4-2-3.1-3.5c-0.7-1.5-1.1-3.2-1.1-5.2
				c0-3.1,0.8-5.5,2.4-7.2s3.8-2.6,6.7-2.6c2.7,0,4.9,0.9,6.5,2.7C319.3,271.1,320.1,273.4,320.1,276.4z M306.3,276.4
				c0,4.4,1.6,6.6,4.9,6.6c3.2,0,4.8-2.2,4.8-6.6c0-4.3-1.6-6.5-4.8-6.5c-1.7,0-2.9,0.6-3.7,1.7
				C306.7,272.7,306.3,274.3,306.3,276.4z M341.5,286h-4.1v-11.7c0-1.5-0.3-2.6-0.9-3.3c-0.6-0.7-1.5-1.1-2.8-1.1
				c-1.7,0-3,0.5-3.7,1.5s-1.2,2.7-1.2,5.1v9.5h-4v-19h3.2l0.6,2.5h0.2c0.6-0.9,1.4-1.6,2.4-2.1s2.2-0.7,3.5-0.7
				c4.6,0,6.8,2.3,6.8,7V286z M355.4,286.3c-3,0-5.3-0.9-6.9-2.6c-1.7-1.7-2.5-4.1-2.5-7.1c0-3.1,0.8-5.5,2.3-7.3
				c1.5-1.8,3.7-2.7,6.4-2.7c2.5,0,4.5,0.8,5.9,2.3c1.5,1.5,2.2,3.6,2.2,6.3v2.2h-12.7c0.1,1.8,0.6,3.3,1.5,4.2c0.9,1,2.3,1.5,4,1.5
				c1.1,0,2.2-0.1,3.1-0.3s2-0.6,3.1-1.1v3.3c-1,0.5-2,0.8-3,1C357.8,286.2,356.7,286.3,355.4,286.3z M354.6,269.7
				c-1.3,0-2.3,0.4-3.1,1.2c-0.8,0.8-1.2,2-1.4,3.6h8.6c0-1.6-0.4-2.8-1.1-3.6C356.9,270.1,355.9,269.7,354.6,269.7z M363.8,267h4.4
				l3.9,10.8c0.6,1.5,1,3,1.2,4.3h0.1c0.1-0.6,0.3-1.4,0.6-2.3c0.3-0.9,1.7-5.2,4.4-12.8h4.4l-8.1,21.5c-1.5,3.9-3.9,5.9-7.4,5.9
				c-0.9,0-1.8-0.1-2.6-0.3v-3.2c0.6,0.1,1.3,0.2,2.1,0.2c1.9,0,3.3-1.1,4.1-3.4l0.7-1.8L363.8,267z"/>
		</g>
	</g>
</g>
</svg>
