<?xml version="1.0" encoding="utf-8"?>
<!-- Generator: Adobe Illustrator 19.2.1, SVG Export Plug-In . SVG Version: 6.00 Build 0)  -->
<svg version="1.1" id="layer" xmlns="http://www.w3.org/2000/svg" xmlns:xlink="http://www.w3.org/1999/xlink" x="0px" y="0px"
	 viewBox="0 0 652 652" style="enable-background:new 0 0 652 652;" xml:space="preserve">
<style type="text/css">
	.st0{fill:#F3BB2D;}
	.st1{fill:#101820;}
</style>
<path class="st0" d="M73.1,322c0,3.2,2.5,5.7,5.7,5.7c3.2,0,5.7-2.5,5.7-5.7c0-3.2-2.5-5.7-5.7-5.7C75.6,316.4,73.1,318.9,73.1,322
	 M120.9,316.4c-3.2,0-5.7,2.5-5.7,5.7c0,3.2,2.5,5.7,5.7,5.7c3.2,0,5.7-2.5,5.7-5.7C126.6,318.9,124.1,316.4,120.9,316.4
	 M120.9,359.2c-3.2,0-5.7,2.5-5.7,5.7c0,3.2,2.5,5.7,5.7,5.7c3.2,0,5.7-2.5,5.7-5.7C126.6,361.7,124.1,359.2,120.9,359.2"/>
<path class="st0" d="M133,269.3c-5.7-7.1-15.9-7.4-21.9-1.8l-0.7,0.7l-1.4,1.1c-5.7,4.6-14.2,4.2-19.5-1.1v-0.4
	c-1.8-1.8-4.2-3.2-6.7-3.9c-0.4,0-1.1-0.4-1.4-0.4h-5.7c-0.4,0-0.7,0-1.1,0.4h-0.7c-0.4,0-0.7,0.4-1.1,0.4c0,0-0.4,0-0.4,0.4
	c-0.4,0-0.7,0.4-1.1,0.4c0,0-0.4,0-0.4,0.4c-0.4,0.4-0.7,0.4-1.1,0.7c0,0-0.4,0-0.4,0.4c-0.4,0.4-0.7,0.4-1.1,0.7l-0.4,0.4l-0.7,0.7
	l-1.4,1.1c-5.7,4.6-14.2,4.2-19.1-1.1c0,0-0.4,0-0.4-0.4l-0.7-0.7c-2.1-1.8-4.6-3.2-7.4-3.5h-6.4c0,0.4-0.4,0.4-0.7,0.7H31
	c-1.8,0.7-3.5,1.4-5,2.8l-0.4,0.4l-1.1,1.1c-1.4,1.4-2.1,3.2-2.8,4.6c0,0.4-0.4,0.7-0.4,1.1s-0.4,0.7-0.4,1.4
	c-0.4,2.5-0.4,5,0.4,7.4c0,0.4,0.4,0.7,0.4,1.1v0.4c0,0.4,0.4,0.7,0.4,1.1c0.4,0.4,0.4,0.7,0.7,1.4c0.7,0.4,1.4,1.1,1.8,1.4l0.7,0.7
	l0.7,0.7c5.3,5.3,5.3,14.5-0.4,20.2c-0.7,0.7-1.8,1.8-2.1,2.5c-0.4,0.4-0.4,0.7-0.7,1.4v0.4c-0.4,0.4-0.4,0.7-0.7,1.1v0.4
	c0,0.4-0.4,0.7-0.4,1.1v0.4c0,0.4,0,0.7-0.4,1.1v5.3c0,0.4,0,0.7,0.4,1.1v0.4c0.7,2.5,2.1,5,4.2,7.1c5.7,5.7,5.7,14.9,0,20.5
	l-0.4,0.4l-0.7,0.7v0.4c-0.4,0.4-0.7,0.7-0.7,1.1c0,0,0,0.4-0.4,0.4c-0.4,0.4-0.4,0.7-0.7,1.1l-0.4,0.4c0,0.4-0.4,0.4-0.4,0.7
	s-0.4,0.4-0.4,0.7c0,0.4,0,0.4-0.4,0.7c-0.7,1.4-1.1,3.2-1.1,4.6v2.8c0.4,1.1,0.4,2.1,1.1,2.8c0,0.4,0.4,0.7,0.4,0.7s0,0.4,0.4,0.4
	c0,0.4,0.4,0.7,0.4,1.1c0,0,0,0.4,0.4,0.4c0.4,0.7,0.7,1.1,1.1,1.4c0,0,0,0.4,0.4,0.4c0,0,0,0.4,0.4,0.4c0,0.4,0.4,0.4,0.4,0.4
	l0.4,0.4c0.4,0.4,0.7,0.4,0.7,0.7l0.4,0.4c0,0,0.4,0,0.4,0.4c0.4,0.4,0.7,0.7,1.1,0.7c0,0,0.4,0,0.4,0.4c0.4,0.4,0.7,0.4,1.1,0.7H30
	c0.4,0.4,0.7,0.4,1.4,0.4c0.4,0,1.1,0.4,1.4,0.4h0.4c0.4,0,0.7,0,1.1,0.4h3.2c1.1,0,1.8-0.4,2.8-0.4h0.4c0.4,0,0.7-0.4,1.1-0.4H42
	c0.4,0,0.7-0.4,1.1-0.4h0.4c0.7-0.4,1.8-1.1,2.5-1.4l1.1-1.1l0.4-0.4c5.7-6,14.9-6,20.5,0c6.4,6.7,17,6.4,23-1.1
	c4.2-5.3,4.2-13.1,0-18.8c-5.7-7.1-15.9-7.4-21.9-1.8l-0.7,0.7l-1.4,1.1c-5.7,4.6-14.2,4.2-19.5-1.1l-0.7-0.7l-1.1-1.4
	c-4.6-5.7-4.2-14.2,1.1-19.5c3.2-2.8,4.6-6.7,4.6-10.6v-1.1c0-3.5-1.4-7.1-4.2-9.6c0-0.4-0.4-0.4-0.4-0.7l-1.1-1.4
	c-4.6-5.7-4.2-14.2,1.1-19.5l0.4-0.4l0.4-0.4c5.7-6,14.9-6,20.5,0l0.4,0.4l0.4,0.4l0.7,0.7c0.4,0,0.4,0.4,0.7,0.4s0.4,0.4,0.7,0.4
	s0.4,0.4,0.7,0.4s0.4,0.4,0.7,0.4s0.4,0.4,0.7,0.4s0.4,0.4,0.7,0.4s0.4,0,0.7,0.4c0.4,0,0.4,0,0.7,0.4h6c0.4,0,0.7,0,1.1-0.4h0.7
	c0.4,0,0.7-0.4,1.1-0.4h0.4c0.4,0,0.7-0.4,1.4-0.7c1.4-0.7,2.8-1.8,3.9-2.8l0.4-0.4c5.7-6,14.9-6,20.5,0c6,7.1,17,6.7,22.7-0.7
	C137.2,282.4,137.2,274.6,133,269.3"/>
<path class="st1" d="M213.7,313.2c-2.1-2.1-3.9-3.5-6.4-4.6c-2.1-1.1-4.6-1.8-7.8-1.8c-2.8,0-5.7,0.7-7.8,1.8
	c-2.1,1.1-3.9,2.5-5.3,4.6c-1.4,1.8-2.5,3.9-3.2,6.4c-0.7,2.5-1.1,5-1.1,7.4s0.4,5,1.4,7.4c0.7,2.5,2.1,4.2,3.5,6
	c1.4,1.8,3.5,3.2,5.7,4.2c2.1,1.1,4.6,1.4,7.4,1.4c3.2,0,5.7-0.7,7.8-1.8s4.2-2.5,6-4.6l7.4,7.8c-2.8,3.2-6,5.3-9.6,6.7
	c-3.5,1.4-7.4,2.1-11.7,2.1c-4.2,0-8.5-0.7-12-2.1s-6.7-3.5-9.2-6s-4.6-5.7-6-9.2c-1.4-3.5-2.1-7.8-2.1-12c0-4.2,0.7-8.5,2.1-12
	c1.4-3.5,3.5-6.7,6-9.6c2.5-2.5,5.7-4.6,9.2-6s7.8-2.1,12-2.1c4.2,0,8.1,0.7,11.7,2.1c3.9,1.4,7.1,3.9,9.9,6.7L213.7,313.2
	 M237.7,326.3c0,2.8,0.4,5.7,1.4,7.8c0.7,2.5,2.1,4.6,3.5,6.4c1.4,1.8,3.5,3.2,5.7,3.9c2.1,1.1,5,1.4,7.8,1.4c2.8,0,5.3-0.4,7.8-1.4
	c2.1-1.1,4.2-2.5,5.7-3.9c1.4-1.8,2.8-3.9,3.5-6.4s1.4-5,1.4-7.8c0-2.8-0.4-5.7-1.4-7.8c-0.7-2.5-2.1-4.6-3.5-6.4
	c-1.4-1.8-3.5-3.2-5.7-3.9c-2.1-1.1-5-1.4-7.8-1.4c-2.8,0-5.3,0.4-7.8,1.4c-2.1,1.1-4.2,2.5-5.7,3.9c-1.4,1.8-2.8,3.9-3.5,6.4
	C238.4,321,237.7,323.5,237.7,326.3z M226.4,326.3c0-4.2,0.7-8.1,2.1-11.7c1.4-3.5,3.5-6.7,6.4-9.6c2.8-2.8,5.7-5,9.6-6.4
	c3.5-1.4,7.4-2.5,11.7-2.5s8.1,0.7,11.7,2.5c3.5,1.4,6.7,3.5,9.6,6.4c2.8,2.8,4.6,6,6.4,9.6c1.4,3.5,2.1,7.4,2.1,11.7
	c0,4.2-0.7,8.1-2.1,11.7c-1.4,3.5-3.5,6.7-6.4,9.6c-2.8,2.8-5.7,4.6-9.6,6.4c-3.5,1.4-7.4,2.5-11.7,2.5c-4.2,0-8.1-0.7-11.7-2.5
	c-3.5-1.4-6.7-3.5-9.6-6.4c-2.8-2.8-4.6-5.7-6.4-9.6C227.5,334.4,226.4,330.5,226.4,326.3z M296.9,355h10.6v-56.6h-10.6V355z
	 M294.4,277.8c0-2.1,0.7-3.9,2.1-5.7c1.4-1.4,3.2-2.5,5.3-2.5s3.9,0.7,5.3,2.5c1.4,1.4,2.1,3.5,2.1,5.7s-0.7,3.9-2.1,5.7
	c-1.4,1.4-3.2,2.5-5.3,2.5s-3.9-0.7-5.3-2.5C295.1,282,294.4,279.9,294.4,277.8z M322.3,298.3H333v8.8h0.4c1.4-3.2,3.5-5.7,7.1-7.4
	c3.2-1.8,7.1-2.8,11.7-2.8c2.8,0,5.3,0.4,7.8,1.4c2.5,0.7,4.6,2.1,6.4,3.9c1.8,1.8,3.2,3.9,4.6,6.7c1.1,2.8,1.8,6,1.8,9.9v36.5H362
	v-33.6c0-2.5-0.4-5-1.1-6.7c-0.7-1.8-1.8-3.5-2.8-4.6c-1.1-1.1-2.5-2.1-4.2-2.5c-1.4-0.4-3.2-0.7-5-0.7c-2.1,0-4.2,0.4-6,1.1
	c-1.8,0.7-3.5,1.8-5,3.5c-1.4,1.4-2.5,3.5-3.2,6s-1.1,5.3-1.1,8.5v29.4h-10.6v-57.3 M411.9,346.1c2.8,0,5.3-0.4,7.8-1.4
	c2.5-1.1,4.2-2.5,6-4.2c1.4-1.8,2.8-3.9,3.5-6.4c0.7-2.5,1.4-5,1.4-8.1c0-2.8-0.4-5.7-1.4-8.1c-0.7-2.5-2.1-4.6-3.5-6.4
	c-1.8-1.8-3.5-3.2-6-4.2c-2.5-1.1-5-1.4-7.8-1.4c-2.8,0-5.3,0.4-7.8,1.4c-2.5,1.1-4.2,2.5-6,4.2c-1.4,1.8-2.8,3.9-3.5,6.4
	s-1.4,5-1.4,8.1c0,2.8,0.4,5.7,1.4,8.1c0.7,2.5,2.1,4.6,3.5,6.4c1.4,1.8,3.5,3.2,6,4.2C406.2,345.4,409.1,346.1,411.9,346.1z
	 M441.3,354.6h-10.6v-8.1h-0.4c-2.1,3.2-5,5.3-8.5,7.1c-3.5,1.8-7.4,2.5-11.3,2.5c-4.2,0-8.5-0.7-12-2.1s-6.7-3.5-9.2-6.4
	c-2.5-2.8-4.6-6-5.7-9.6c-1.4-3.5-2.1-7.4-2.1-11.7s0.7-8.1,2.1-12c1.4-3.5,3.2-6.7,5.7-9.6c2.5-2.8,5.7-5,9.2-6.4s7.4-2.1,12-2.1
	c3.9,0,7.8,0.7,11.3,2.5c3.5,1.8,6.4,4.2,8.1,7.1h0.4v-42.5h10.6v91.3H441.3z M495.4,321.7c0-2.5-0.4-4.6-1.1-6.7
	c-0.7-2.1-1.8-3.9-3.2-5.3c-1.4-1.4-3.2-2.5-5-3.5c-2.1-0.7-4.2-1.4-7.1-1.4c-2.5,0-5,0.4-7.1,1.4c-2.1,1.1-3.9,2.1-5.7,3.9
	c-1.4,1.4-2.8,3.2-3.5,5.3c-0.7,2.1-1.4,3.9-1.4,5.7h34L495.4,321.7z M461.5,330.5c0,2.5,0.7,4.6,1.8,6.7s2.5,3.9,4.2,5.3
	c1.8,1.4,3.9,2.5,6,3.2c2.5,0.7,4.6,1.1,7.1,1.1c3.2,0,6.4-0.7,8.8-2.5c2.5-1.4,4.6-3.5,6.7-6l8.1,6.4c-6,7.8-14.5,11.7-25.1,11.7
	c-4.6,0-8.5-0.7-12-2.1c-3.5-1.4-6.7-3.5-9.2-6.4c-2.5-2.8-4.6-5.7-5.7-9.6c-1.4-3.5-2.1-7.4-2.1-11.7c0-4.2,0.7-8.1,2.1-11.7
	c1.4-3.5,3.5-6.7,6-9.6c2.5-2.8,5.7-4.6,9.2-6.4c3.5-1.4,7.4-2.1,11.7-2.1c5,0,9.2,0.7,12.7,2.5c3.5,1.8,6.4,3.9,8.5,6.7
	c2.1,2.8,3.9,6,5,9.6c1.1,3.5,1.4,7.1,1.4,11v3.9H461.5L461.5,330.5z M548.5,312.5c-1.4-1.4-2.8-2.8-4.6-3.9s-4.2-1.8-6.7-1.8
	s-4.6,0.7-6.7,1.8c-1.8,1.1-2.8,2.5-2.8,4.6c0,1.8,0.7,3.2,1.8,3.9c1.1,1.1,2.5,1.8,3.9,2.5c1.4,0.7,3.2,1.1,4.6,1.4
	c1.8,0.4,3.2,0.7,4.2,0.7c2.1,0.7,4.6,1.1,6.4,2.1c2.1,0.7,3.9,1.8,5.3,3.2c1.4,1.4,2.5,2.8,3.5,4.6c0.7,1.8,1.4,3.9,1.4,6.7
	c0,3.2-0.7,6-2.1,8.1c-1.4,2.1-3.2,4.2-5.3,5.7s-4.6,2.5-7.4,3.2c-2.8,0.7-5.7,1.1-8.1,1.1c-4.6,0-8.8-0.7-12.4-2.1
	c-3.5-1.4-6.7-3.9-9.6-7.8l8.1-6.7c1.8,1.8,3.5,3.2,5.7,4.6s4.6,2.1,7.8,2.1c1.4,0,2.8,0,4.2-0.4c1.4-0.4,2.5-0.7,3.5-1.4
	c1.1-0.7,1.8-1.4,2.5-2.1c0.7-1.1,1.1-2.1,1.1-3.2c0-1.4-0.4-2.8-1.4-3.9c-1.1-1.1-2.1-1.8-3.5-2.5c-1.4-0.7-2.8-1.1-4.2-1.4
	l-4.2-1.1c-2.1-0.7-4.6-1.1-6.4-1.8c-2.1-0.7-3.9-1.8-5.3-2.8c-1.4-1.1-2.8-2.8-3.9-4.6c-1.1-1.8-1.4-4.2-1.4-6.7
	c0-2.8,0.7-5.7,1.8-7.8c1.1-2.1,2.8-3.9,5-5.3c2.1-1.4,4.2-2.5,6.7-3.2c2.5-0.7,5.3-1.1,7.8-1.1c3.9,0,7.4,0.7,11,2.1
	c3.5,1.4,6.4,3.9,8.5,7.1L548.5,312.5 M569.1,264.7h10.6V322l24.1-24.1h14.5l-25.8,25.5l28.3,30.4h-15.2l-25.8-29v29h-10.6V264.7"/>
</svg>
