<svg id="Layer_1" data-name="Layer 1" xmlns="http://www.w3.org/2000/svg" viewBox="0 0 1300 900"><defs><style>.cls-1{fill:#101628;}.cls-2{fill:#fff;}.cls-3{fill:#717cd6;}</style></defs><rect class="cls-1" x="-73.3" y="-50.89" width="1446.6" height="1001.78"/><path class="cls-2" d="M595.66,428.53c5.74,0,10.37,2.43,12.58,6.18h.29a30.11,30.11,0,0,1-.14-3.24v-1.76h9.41v42.5a11.29,11.29,0,0,1-11.29,11.29h-21.7v-9h20.75a2,2,0,0,0,2-2v-7.06a16.52,16.52,0,0,1,.22-3.31h-.3c-1.69,3.16-6,5.45-11.4,5.45-10.59,0-18.6-8-18.6-19.5S585.14,428.53,595.66,428.53ZM587.87,448c0,6.25,4.26,10.52,10.07,10.52S608,454.2,608,448s-4.27-10.52-10.08-10.52S587.87,441.77,587.87,448Z"/><path class="cls-2" d="M621.87,448.76c0-11.77,8.53-20.23,20.37-20.23s20.45,8.46,20.45,20.23S654.09,469,642.24,469,621.87,460.45,621.87,448.76Zm30.45-.15c0-6.55-4-11.11-10.08-11.11s-10.07,4.56-10.07,11.11,4.12,11.25,10.07,11.25S652.32,455.23,652.32,448.61Z"/><path class="cls-2" d="M682.43,428.68c9.26,0,15.88,6.1,15.88,15.15v24h-7.94V443.68a7.91,7.91,0,1,0-15.81,0v24.13h-7.95V443.53C666.61,434.71,673.16,428.68,682.43,428.68Z"/><path class="cls-2" d="M722.83,469c-11.77,0-20.22-8.6-20.22-20.15s8.45-20.15,20.07-20.15c11.11,0,18.69,8.53,18.69,20.15a18.38,18.38,0,0,1-.22,2.87H710.92c1,6.25,5.51,10.15,12,10.15a12.76,12.76,0,0,0,10.81-5.15l4.63,4.78A18.48,18.48,0,0,1,722.83,469Zm-11.91-23H733.5c-.59-6-4.86-10.3-11-10.3S712,439.71,710.92,446Z"/><path class="cls-2" d="M763.8,428.68c6.77,0,11.69,3.23,13.53,7.06h.22c-.07-.81-.14-1.77-.14-3.75v-2.14h7.28v38h-7.28v-2.73c0-1.69.07-2.79.14-3.82h-.22c-2,4.49-7.21,7.72-13.83,7.72-11.47,0-19.12-8.46-19.12-20.15S752.47,428.68,763.8,428.68Zm13.31,20.08c0-7.65-5.15-13.1-12.35-13.1s-12.36,5.45-12.36,13.1,5.29,13.09,12.36,13.09S777.11,456.33,777.11,448.76Z"/><path class="cls-2" d="M809.72,429.85v7.06h-9.63v30.9h-8v-29a8.93,8.93,0,0,1,8.93-8.93Z"/><path class="cls-3" d="M559.06,417.15a6.45,6.45,0,0,0-6.84.81L522.46,442h0l-19.26,15.57V436.48L516.24,447V431.87L500.8,417.94a6.46,6.46,0,0,0-10.52,5v48.13a6.46,6.46,0,0,0,10.52,5l29.76-24.05h0l19.26-15.56v21.08L536.77,447V462.2l15.45,13.93a6.46,6.46,0,0,0,10.51-5V423A6.46,6.46,0,0,0,559.06,417.15Z"/></svg>