<svg xmlns="http://www.w3.org/2000/svg" height="800" width="1200" xml:space="preserve" y="0" x="0" id="Layer_1" version="1.1" viewBox="-9.69 -5.41 83.98 32.46"><style id="style2926" type="text/css">.st1{fill:#6700e8}.st12{fill:#200045}.st26{fill:#545470}</style><g id="g3232" transform="translate(1009.33 -337.75)"><g id="g3230" transform="matrix(.5 0 0 .5 -379.18 197.8)"><g id="g3074"><linearGradient gradientTransform="matrix(.3049 0 0 -.3049 -2361.2344 -2398.0696)" y2="-8824.5059" x2="4023.3896" y1="-8858.166" x1="4017.2861" gradientUnits="userSpaceOnUse" id="SVGID_1_"><stop id="stop2928" offset="0" stop-color="#210045"/><stop id="stop2930" offset=".5942" stop-color="#430085"/><stop id="stop2932" offset="1" stop-color="#5000b2"/></linearGradient><path id="path2935" d="M-1132.8 280.2c1 .2 1.7.8 1.7 1.8 0 .3-.1.8-.2 1.2-.7 2.9-3.3 13.3-4.3 20.2l-1-1 3.2-21.2z" fill="url(#SVGID_1_)"/><path id="path2937" d="M-1197.4 283.1c-1.3.3-2.7.3-3.9 0l2.1 2.1z" class="st1"/><path id="path2939" d="M-1217.9 283.1c1.3.3 2.7.3 3.9 0l-2.1 2.1z" class="st1"/><linearGradient gradientTransform="matrix(.3049 0 0 -.3049 -2361.2344 -2398.0696)" y2="-8832.8252" x2="3723.9053" y1="-8795.9453" x1="3705.8289" gradientUnits="userSpaceOnUse" id="SVGID_2_"><stop id="stop2941" offset="0" stop-color="#5500bd"/><stop id="stop2943" offset="1" stop-color="#5000ac"/></linearGradient><path id="path2946" d="M-1229.5 283c3 7.7 7.8 19.2 10.2 23.7l-3.5-1.1-8.7-21.7z" fill="url(#SVGID_2_)"/><path id="path2948" d="M-1232.3 283c1 .3 1.8.3 2.7 0l-2 1.2z" class="st1"/><linearGradient gradientTransform="matrix(.3049 0 0 -.3049 -2361.2344 -2398.0696)" y2="-8832.5938" x2="3719.7827" y1="-8833.499" x1="3717.428" gradientUnits="userSpaceOnUse" id="SVGID_3_"><stop id="stop2950" offset="0" stop-color="#2a005a"/><stop id="stop2952" offset="1" stop-color="#210046"/></linearGradient><path id="path2955" d="M-1230.9 283.9l8.9 21.7c-.5.6-.8.9-1.3 1.1-2.6-6.6-5.3-13.2-7.7-19.7l-1.2-2z" fill="url(#SVGID_3_)"/><linearGradient gradientTransform="matrix(.3049 0 0 -.3049 -2361.2344 -2398.0696)" y2="-8836.4258" x2="3690.3525" y1="-8868.5732" x1="3677.9138" gradientUnits="userSpaceOnUse" id="SVGID_4_"><stop id="stop2957" offset="0" stop-color="#21004e"/><stop id="stop2959" offset="1" stop-color="#39007f"/></linearGradient><path id="path2962" d="M-1238.5 306.7l-2.6-.9 9.2-21.6 1-.3v3.2c-1.4 4.1-5 13.2-7.6 19.6z" fill="url(#SVGID_4_)"/><path id="path2964" d="M-1240.7 279.9l.9 2 2.2-1 .9-.9c-1.4.2-2.7.2-4-.1z" class="st1"/><linearGradient gradientTransform="matrix(.3049 0 0 -.3049 -2361.2344 -2398.0696)" y2="-8810.6445" x2="3667.5334" y1="-8809.21" x1="3665.1089" gradientUnits="userSpaceOnUse" id="SVGID_5_"><stop id="stop2966" offset="0" stop-color="#1b0041"/><stop id="stop2968" offset="1" stop-color="#21004f"/></linearGradient><path id="path2971" d="M-1246.9 297.1l-1.5.6-.9-1.7 9.4-15 .7-.2c.9-.2 1.9-.4 2.6-.9-1.6 2-7 11.4-10.3 17.2z" fill="url(#SVGID_5_)"/><linearGradient gradientTransform="matrix(.3049 0 0 -.3049 -2361.2344 -2398.0696)" y2="-8809.3291" x2="3662.1052" y1="-8782.251" x1="3675.0559" gradientUnits="userSpaceOnUse" id="SVGID_6_"><stop id="stop2973" offset="0" stop-color="#5500bd"/><stop id="stop2975" offset="1" stop-color="#47008d"/></linearGradient><path id="path2978" d="M-1248.9 296.9l.4-.4 9.3-15.7-1.4-.9c-1.1 2.1-5.3 8.8-7.9 13.2l-1.3 2.4z" fill="url(#SVGID_6_)"/><linearGradient gradientTransform="matrix(.3049 0 0 -.3049 -2361.2344 -2398.0696)" y2="-8809.9932" x2="3635.2087" y1="-8783.1094" x1="3622.3276" gradientUnits="userSpaceOnUse" id="SVGID_7_"><stop id="stop2980" offset="0" stop-color="#5100b2"/><stop id="stop2982" offset="1" stop-color="#5500bd"/></linearGradient><path id="path2985" d="M-1256.4 279.9c2.1 3.6 5.2 8.8 7.9 13.2v3.4l-.6.6-9.2-16.4z" fill="url(#SVGID_7_)"/><path id="path2987" d="M-1257.9 280.9l1.5-1c-1.6.3-2.3.4-3.9 0l.6.7z" class="st1"/><linearGradient gradientTransform="matrix(.3049 0 0 -.3049 -2361.2344 -2398.0696)" y2="-8810.6152" x2="3629.165" y1="-8812.167" x1="3626.8374" gradientUnits="userSpaceOnUse" id="SVGID_8_"><stop id="stop2989" offset="0" stop-color="#27005d" stop-opacity=".9804"/><stop id="stop2991" offset=".3177" stop-color="#2b005d"/><stop id="stop2993" offset=".5976" stop-color="#280055"/><stop id="stop2995" offset=".8088" stop-color="#24004d"/><stop id="stop2997" offset="1" stop-color="#230049"/></linearGradient><path id="path3000" d="M-1248.5 296.5l-.7 1-.9-.4c-1.8-3-6.9-12.3-10.2-17.2.7.5 1.5.7 2.6.9z" fill="url(#SVGID_8_)"/><linearGradient gradientTransform="matrix(.3049 0 0 -.3049 -2361.2344 -2398.0696)" y2="-8858.5537" x2="3650.6111" y1="-8836.5576" x1="3647.8193" gradientUnits="userSpaceOnUse" id="SVGID_9_"><stop id="stop3002" offset="0" stop-color="#5500bd"/><stop id="stop3004" offset="1" stop-color="#5300b5"/></linearGradient><path id="path3007" d="M-1246.6 309.8l-2.7-1.3.2-11.2.6-.9 1.7.6z" fill="url(#SVGID_9_)"/><linearGradient gradientTransform="matrix(.3049 0 0 -.3049 -2361.2344 -2398.0696)" y2="-8858.5303" x2="3645.9094" y1="-8836.7793" x1="3645.9094" gradientUnits="userSpaceOnUse" id="SVGID_10_"><stop id="stop3009" offset="0" stop-color="#210045"/><stop id="stop3011" offset=".25" stop-color="#25004d"/><stop id="stop3013" offset=".5" stop-color="#2b005c"/><stop id="stop3015" offset=".7485" stop-color="#340071"/><stop id="stop3017" offset="1" stop-color="#3e0088"/></linearGradient><path id="path3020" d="M-1248.5 308.9l-1.9.9.2-12.7 1.7-.6z" fill="url(#SVGID_10_)"/><linearGradient gradientTransform="matrix(.3049 0 0 -.3049 -2361.2344 -2398.0696)" y2="-8832.5146" x2="3688.6782" y1="-8869.5762" x1="3670.1658" gradientUnits="userSpaceOnUse" id="SVGID_11_"><stop id="stop3022" offset="0" stop-color="#4d00a1"/><stop id="stop3024" offset="1" stop-color="#5200b4"/></linearGradient><path id="path3027" d="M-1242.4 306.7c3.3-6.7 6.9-15.7 10.1-23.7l1.4.8-9 22-1.8.6z" fill="url(#SVGID_11_)"/><path id="path3029" d="M-1222.1 305.5l2.8 1.2c-1.1-.3-2.5-.4-3.9 0l.5-1.3z" class="st12"/><linearGradient gradientTransform="matrix(.3049 0 0 -.3049 -2361.2344 -2398.0696)" y2="-8844.0723" x2="3706.9314" y1="-8844.0723" x1="3686.8804" gradientUnits="userSpaceOnUse" id="SVGID_12_"><stop id="stop3031" offset="0" stop-color="#6700e8"/><stop id="stop3033" offset=".506" stop-color="#6700e8"/><stop id="stop3035" offset="1" stop-color="#6700e8"/></linearGradient><path id="path3038" d="M-1237 299l1.9-.8c2.8.1 5.6.1 8.4 0l2 .9-1.8.4h-9.1z" fill="url(#SVGID_12_)"/><path id="path3040" d="M-1235.7 299.8l-1.3-.8c4.1-.1 8.2-.1 12.3 0l-1.3.8c-3.3-.1-6.5-.1-9.7 0z" class="st12"/><linearGradient gradientTransform="matrix(.3049 0 0 -.3049 -2361.2344 -2398.0696)" y2="-8831.3936" x2="3759.0103" y1="-8831.3936" x1="3755.7527" gradientUnits="userSpaceOnUse" id="SVGID_13_"><stop id="stop3042" offset="0" stop-color="#5a00c9"/><stop id="stop3044" offset="1" stop-color="#4f00a8"/></linearGradient><path id="path3047" d="M-1214 306.7l-2.8-.9v-21.2l.8-.4 2-1.1c-.4 7.8-.4 15.7 0 23.6z" fill="url(#SVGID_13_)"/><linearGradient gradientTransform="matrix(.3049 0 0 -.3049 -2361.2344 -2398.0696)" y2="-8831.3906" x2="3752.6675" y1="-8831.3906" x1="3749.4346" gradientUnits="userSpaceOnUse" id="SVGID_14_"><stop id="stop3049" offset="0" stop-color="#390080"/><stop id="stop3051" offset=".5" stop-color="#31006e"/><stop id="stop3053" offset="1" stop-color="#250056"/></linearGradient><path id="path3056" d="M-1216 305.6v.6l-2 .6c.3-7.9.3-15.8 0-23.7l2 1.1z" fill="url(#SVGID_14_)"/><linearGradient gradientTransform="matrix(.3049 0 0 -.3049 -2361.2344 -2398.0696)" y2="-8831.3936" x2="3806.8962" y1="-8831.3936" x1="3803.5471" gradientUnits="userSpaceOnUse" id="SVGID_15_"><stop id="stop3058" offset="0" stop-color="#3f008b"/><stop id="stop3060" offset="1" stop-color="#220050"/></linearGradient><path id="path3063" d="M-1201.4 306.7l2.8-.9v-21.2l-.8-.4-2-1.1c.4 7.8.4 15.7 0 23.6z" fill="url(#SVGID_15_)"/><linearGradient gradientTransform="matrix(.3049 0 0 -.3049 -2361.2344 -2398.0696)" y2="-8830.8242" x2="3782.998" y1="-8830.8242" x1="3755.8674" gradientUnits="userSpaceOnUse" id="SVGID_16_"><stop id="stop3065" offset="0" stop-color="#6700e8"/><stop id="stop3067" offset=".5" stop-color="#6700e8"/><stop id="stop3069" offset="1" stop-color="#6700e8"/></linearGradient><path id="path3072" d="M-1216 294.8l1.7-.7c4.4.1 8.8.1 13.2 0l1.7.7-2.1.5h-12.8z" fill="url(#SVGID_16_)"/></g><linearGradient gradientTransform="matrix(.3049 0 0 -.3049 -2361.2344 -2398.0696)" y2="-8831.5723" x2="3862.0022" y1="-8800.9248" x1="3882.8086" gradientUnits="userSpaceOnUse" id="SVGID_17_"><stop id="stop3076" offset="0" stop-color="#1c0044"/><stop id="stop3078" offset=".1001" stop-color="#2f0065"/><stop id="stop3080" offset=".2048" stop-color="#34006d"/><stop id="stop3082" offset=".3" stop-color="#3b007a"/><stop id="stop3084" offset=".4" stop-color="#3c007a"/><stop id="stop3086" offset=".5" stop-color="#490096"/><stop id="stop3088" offset=".6" stop-color="#5000ab"/><stop id="stop3090" offset=".7003" stop-color="#5400ba"/><stop id="stop3092" offset=".8031" stop-color="#5500bc"/><stop id="stop3094" offset=".9" stop-color="#5700c2"/><stop id="stop3096" offset="1" stop-color="#5c00ce"/></linearGradient><path id="path3099" d="M-1183.5 283c-7.7 0-11.6 4.8-11.6 11.9 0 8.8 5.8 11.9 11.5 11.9 6.7 0 11.5-3.8 11.5-11.9 0-7.7-4.5-11.9-11.4-11.9zm-.3 1.2h.2c5.1 0 8.9 3.5 8.9 10.8 0 7.3-3.8 10.8-8.9 10.8-5.6 0-8.9-4-8.9-10.7.1-7.8 4.2-10.8 8.7-10.9z" fill="url(#SVGID_17_)"/><linearGradient gradientTransform="matrix(.3049 0 0 -.3049 -2361.2344 -2398.0696)" y2="-8831.8711" x2="3862.0107" y1="-8864.4971" x1="3835.9565" gradientUnits="userSpaceOnUse" id="SVGID_18_"><stop id="stop3101" offset="0" stop-color="#1b0041"/><stop id="stop3103" offset=".1001" stop-color="#1b0041"/><stop id="stop3105" offset=".2048" stop-color="#1b0041"/><stop id="stop3107" offset=".3" stop-color="#240052"/><stop id="stop3109" offset=".4" stop-color="#32006a"/><stop id="stop3111" offset=".5" stop-color="#3d007d"/><stop id="stop3113" offset=".6" stop-color="#490098"/><stop id="stop3115" offset=".7003" stop-color="#4f00a8"/><stop id="stop3117" offset=".8031" stop-color="#5500bc"/><stop id="stop3119" offset=".9" stop-color="#5700c2"/><stop id="stop3121" offset="1" stop-color="#6000da"/></linearGradient><path id="path3124" d="M-1183.5 282.7c-8.4 0-12.8 5.3-12.8 12.2 0 7.5 4.8 12.1 12.7 12.1 8.6 0 12.8-5.2 12.8-12 0-7.7-5-12.3-12.7-12.3zm0 .8c6.6 0 11 4 11 11.4 0 7.7-4.6 11.4-11.1 11.4-5.4 0-11.1-2.9-11.1-11.4 0-6.7 3.7-11.4 11.2-11.4z" fill="url(#SVGID_18_)"/><linearGradient gradientTransform="matrix(.3049 0 0 -.3049 -2361.2344 -2398.0696)" y2="-8831.9883" x2="3956.7849" y1="-8795.1982" x1="3976.2661" gradientUnits="userSpaceOnUse" id="SVGID_19_"><stop id="stop3126" offset="0" stop-color="#1e0046"/><stop id="stop3128" offset=".1001" stop-color="#2d0061"/><stop id="stop3130" offset=".2048" stop-color="#33006b"/><stop id="stop3132" offset=".3" stop-color="#400082"/><stop id="stop3134" offset=".4" stop-color="#490096"/><stop id="stop3136" offset=".5" stop-color="#5000ac"/><stop id="stop3138" offset=".6" stop-color="#5500bd"/><stop id="stop3140" offset=".7003" stop-color="#4f00a8"/><stop id="stop3142" offset=".8031" stop-color="#5500bc"/><stop id="stop3144" offset=".9" stop-color="#5700c2"/><stop id="stop3146" offset="1" stop-color="#6000da"/></linearGradient><path id="path3149" d="M-1154.6 281.8c-7.9 0-13.2 4.4-13.2 13.1 0 8.5 5 13.2 13.3 13.2 6.3 0 13.1-3.2 13.1-13.1-.1-10.6-7.6-13.2-13.2-13.2zm-.1 1c6.3 0 10.9 3.8 10.9 12.2 0 9.1-5.6 12.1-10.9 12.1-5.6 0-10.8-3.3-10.8-12.2.1-9.4 5.8-12.1 10.8-12.1z" fill="url(#SVGID_19_)"/><linearGradient gradientTransform="matrix(.3049 0 0 -.3049 -2361.2344 -2398.0696)" y2="-8832.1074" x2="3956.7214" y1="-8871.457" x1="3932.0188" gradientUnits="userSpaceOnUse" id="SVGID_20_"><stop id="stop3151" offset="0" stop-color="#1b0041"/><stop id="stop3153" offset=".1001" stop-color="#1b0041"/><stop id="stop3155" offset=".2048" stop-color="#1b0041"/><stop id="stop3157" offset=".3" stop-color="#240052"/><stop id="stop3159" offset=".4" stop-color="#32006a"/><stop id="stop3161" offset=".5" stop-color="#3d007d"/><stop id="stop3163" offset=".6" stop-color="#490098"/><stop id="stop3165" offset=".7003" stop-color="#4f00a8"/><stop id="stop3167" offset=".8031" stop-color="#5500bc"/><stop id="stop3169" offset=".9" stop-color="#5700c2"/><stop id="stop3171" offset="1" stop-color="#6000da"/></linearGradient><path id="path3174" d="M-1154.7 281.3c-8.3 0-14.7 4.7-14.7 13.5 0 7.2 4.2 13.6 14.8 13.6 8.9 0 14.7-4.9 14.7-13.5 0-8-5.4-13.6-14.8-13.6zm.1.9c5.5 0 12.8 2.5 12.8 12.9 0 9.6-6.7 12.8-12.8 12.8-8 0-12.9-4.6-12.9-12.9 0-8.5 5.2-12.8 12.9-12.8z" fill="url(#SVGID_20_)"/><radialGradient gradientUnits="userSpaceOnUse" gradientTransform="matrix(-.1096 .3724 .3911 .1151 -2497.1833 -1377.8563)" r="3.2261" cy="4367.3789" cx="3173.8623" id="SVGID_21_"><stop id="stop3176" offset="0" stop-color="#6000d8"/><stop id="stop3178" offset=".2089" stop-color="#5c00cd"/><stop id="stop3180" offset=".3742" stop-color="#5500be"/><stop id="stop3182" offset=".721" stop-color="#2d0062"/><stop id="stop3184" offset="1" stop-color="#210045"/></radialGradient><path id="path3187" d="M-1139.2 308.1c0-1 .6-2 1.9-2 1.2 0 2.1.7 2.1 1.8 0 1.4-.9 1.9-1.8 1.9-1.3.1-2.2-.5-2.2-1.7z" fill="url(#SVGID_21_)"/><linearGradient gradientTransform="matrix(.3049 0 0 -.3049 -2361.2344 -2398.0696)" y2="-8825.1113" x2="4019.0776" y1="-8858.5645" x1="4014.2412" gradientUnits="userSpaceOnUse" id="SVGID_22_"><stop id="stop3189" offset="0" stop-color="#47008d"/><stop id="stop3191" offset="1" stop-color="#5100b3"/></linearGradient><path id="path3194" d="M-1137.2 303.2c1-6.8 1.5-13.9 2.1-21.1 0-1.4.9-2 1.9-2h.4l-.3 1.7-3.4 21.1z" fill="url(#SVGID_22_)"/><g id="g3204"><path id="path3196" d="M-1250.4 309.8l1.9-1.4 1.9 1.4s-1-.2-1.9-.2c-.8 0-1.9.2-1.9.2z" class="st12"/><path id="path3198" d="M-1242.4 306.7l2.6-1.1c.4.5.8.9 1.3 1.1-.9-.2-2.4-.4-3.9 0z" class="st12"/><path id="path3200" d="M-1217.9 306.7c1.3-.3 2.6-.3 3.9 0l-2-1.1z" class="st12"/><path id="path3202" d="M-1214.3 295.7l-1.7-.9c5.5.1 11 .1 16.5 0l-1.7.9c-4.3-.1-8.7 0-13.1 0z" class="st12"/></g><g id="g3228"><linearGradient gradientTransform="matrix(.3049 0 0 -.3049 -2361.2344 -2398.0696)" y2="-8831.3906" x2="3813.3308" y1="-8831.3906" x1="3810.0928" gradientUnits="userSpaceOnUse" id="SVGID_23_"><stop id="stop3206" offset="0" stop-color="#5500bd"/><stop id="stop3208" offset="1" stop-color="#5200b2"/></linearGradient><path id="path3211" d="M-1199.4 305.6v.6l2 .6c-.3-7.9-.3-15.8 0-23.7l-2 1.1z" fill="url(#SVGID_23_)"/><path id="path3213" d="M-1197.4 306.7c-1.3-.3-2.6-.3-3.9 0l2-1.1z" class="st12"/><path id="path3215" d="M-1136.4 302.5l-.9.8c.6-.1 1 0 1.5.2z" class="st12"/><radialGradient gradientUnits="userSpaceOnUse" gradientTransform="matrix(-.404 -.07233 -.05168 .2887 -3324.4136 -2194.7483)" r="2.9089" cy="6994.0864" cx="-6318.8179" id="SVGID_24_"><stop id="stop3217" offset="0" stop-color="#6700e8"/><stop id="stop3219" offset=".3994" stop-color="#5c00ce"/><stop id="stop3221" offset=".7012" stop-color="#5600bf" stop-opacity=".045"/><stop id="stop3223" offset="1" stop-color="#220047" stop-opacity="0"/></radialGradient><ellipse id="ellipse3226" ry="1.7" rx="1.9" cy="281.9" cx="-1133.2" fill="url(#SVGID_24_)"/></g></g></g><g transform="translate(-.47 -.26)" id="g3248"><path id="path3234" d="M21.3 17.5v.4h-2v1.4h1.8v.4h-1.8v2.1h-1.1v-4.3z" class="st26"/><path id="path3236" d="M22.3 17.5h1.1v4.3h-1.1z" class="st26"/><path id="path3238" d="M24.4 17.5h.6l2.5 2.7v-2.7h.7v4.4h-.5l-2.7-3v3h-.7v-4.4z" class="st26"/><path id="path3240" d="M31.4 17.4l2 4.4h-1.1l-.5-1.2h-1.7l-.6 1.2h-.7l2.1-4.4zm-1.1 2.8h1.3l-.6-1.4z" class="st26"/><path id="path3242" d="M33.9 17.5h.7l2.5 2.7v-2.7h.7v4.4h-.5l-2.7-3v3h-.7z" class="st26"/><path id="path3244" d="M39.9 19.6c0 .3 0 .5.1.7.1.2.2.4.3.5.1.1.3.3.5.3s.4.1.6.1c.2 0 .3 0 .4-.1.1-.1.3-.1.4-.2l.3-.3c.1-.1.2-.2.3-.4l.4.3c-.1.2-.2.3-.3.4-.1.1-.3.3-.5.4-.2.1-.3.2-.5.3-.2.1-.4.1-.6.1-.4 0-.7-.1-1-.2-.3-.1-.6-.3-.8-.5-.2-.2-.4-.4-.5-.7-.1-.3-.2-.6-.2-.9 0-.3.1-.6.2-.9.1-.3.3-.5.5-.7.2-.2.5-.4.8-.5.3-.1.6-.2 1-.2.2 0 .5 0 .7.1.2.1.4.1.6.2.2.1.3.2.5.4.1.1.2.3.4.5l-.4.3c-.1-.1-.2-.2-.3-.4l-.3-.3c-.5.2-.6.1-.7.1-.1 0-.3-.1-.4-.1-.2 0-.4 0-.6.1-.2.1-.3.2-.5.3-.1.1-.2.3-.3.5-.1.2-.1.6-.1.8z" class="st26"/><path id="path3246" d="M47.4 17.5v.4h-2.2v1.4H47v.4h-1.8v1.7h2.2v.4h-3.2v-4.3z" class="st26"/></g></svg>